<svg width="332" height="118" viewBox="0 0 332 118" fill="none" xmlns="http://www.w3.org/2000/svg">
<path d="M17.1461 57.3608C17.1461 58.6392 17.6203 59.567 18.5688 60.1443C19.5172 60.8454 21.5378 61.567 24.6306 62.3093C27.8884 63.0928 30.2595 64.1649 31.744 65.5258C33.2698 66.8866 34.0327 68.8454 34.0327 71.4021C34.0327 74.0825 33.0224 76.2474 31.0018 77.8969C29.0224 79.5464 26.4244 80.3711 23.2079 80.3711C18.5481 80.3711 14.342 78.7216 10.5894 75.4227L13.8059 71.5876C16.9399 74.268 20.1152 75.6082 23.3316 75.6082C24.9399 75.6082 26.2389 75.2577 27.2286 74.5567C28.2182 73.8144 28.7131 72.866 28.7131 71.7113C28.7131 70.5567 28.2595 69.6495 27.3523 68.9897C26.4863 68.3299 24.9193 67.732 22.6512 67.1959C18.7337 66.2887 16.0121 65.2165 14.4863 63.9794C12.7131 62.6186 11.8265 60.5361 11.8265 57.732C11.8265 55.0103 12.8162 52.8866 14.7956 51.3608C16.7749 49.7938 19.311 49.0103 22.4038 49.0103C26.5688 49.0103 30.1358 50.2268 33.1048 52.6598L30.3832 56.4948C29.476 55.6701 28.2595 55.0103 26.7337 54.5155C25.2079 53.9794 23.7028 53.7113 22.2182 53.7113C20.6925 53.7113 19.4554 54.0412 18.5069 54.701C17.5997 55.3196 17.1461 56.2062 17.1461 57.3608ZM52.8013 75.4845C55.1518 75.4845 57.0075 74.6804 58.3683 73.0722C59.7704 71.4639 60.4714 69.2784 60.4714 66.5155V49.7526H65.6054V66.701C65.6054 70.9897 64.4302 74.3299 62.0796 76.7216C59.7291 79.1134 56.6363 80.3093 52.8013 80.3093C48.9662 80.3093 45.8734 79.1134 43.5229 76.7216C41.1724 74.3299 39.9972 70.9897 39.9972 66.701V49.7526H45.0693V66.5155C45.0693 69.3196 45.7704 71.5052 47.1724 73.0722C48.5332 74.6804 50.4095 75.4845 52.8013 75.4845ZM95.9794 71.6495L99.2578 74.9897C96.1238 78.5773 92.2475 80.3711 87.6289 80.3711C83.0516 80.3711 79.2372 78.9072 76.1856 75.9794C73.1753 73.0103 71.6702 69.2783 71.6702 64.7835C71.6702 60.2474 73.2166 56.4948 76.3093 53.5258C79.4021 50.5155 83.299 49.0103 88.0001 49.0103C92.6186 49.0103 96.5155 50.7423 99.6908 54.2062L96.4743 57.732C95.031 56.3299 93.6702 55.3608 92.3918 54.8247C91.1135 54.2887 89.6083 54.0206 87.8763 54.0206C84.7836 54.0206 82.1856 55.0103 80.0825 56.9897C78.0207 58.9691 76.9898 61.4845 76.9898 64.5361C76.9898 67.5464 78.0207 70.1031 80.0825 72.2062C82.1444 74.3093 84.598 75.3608 87.4434 75.3608C89.1753 75.3608 90.6599 75.0722 91.897 74.4948C93.1753 73.9175 94.5361 72.9691 95.9794 71.6495ZM123.153 68.9897L131.071 80H124.576L117.339 69.7938H110.659V80H105.525V49.7526H116.782C121.36 49.7526 124.638 50.5361 126.617 52.1031C128.638 53.6289 129.648 56.1237 129.648 59.5876C129.648 64.5773 127.483 67.7113 123.153 68.9897ZM116.968 65.2165C119.813 65.2165 121.772 64.7835 122.844 63.9175C123.916 63.0515 124.452 61.5876 124.452 59.5258C124.452 57.5464 123.916 56.2062 122.844 55.5052C121.772 54.7629 119.854 54.3918 117.092 54.3918H110.659V65.2165H116.968ZM158.326 49.7526V54.5155H142.182V62.5567H156.656V67.0722H142.182V75.1753H158.821V80H137.048V49.7526H158.326Z" fill="#0A5004" fill-opacity="0.8"/>
<path d="M18.5688 60.1443L19.7575 58.536L19.6853 58.4826L19.6087 58.4359L18.5688 60.1443ZM24.6306 62.3093L25.0983 60.3647L25.0974 60.3645L24.6306 62.3093ZM31.744 65.5258L30.3926 67.0001L30.4026 67.0093L30.4128 67.0184L31.744 65.5258ZM31.0018 77.8969L29.737 76.3476L29.7292 76.354L29.7214 76.3605L31.0018 77.8969ZM10.5894 75.4227L9.057 74.1375L7.80132 75.6346L9.26887 76.9248L10.5894 75.4227ZM13.8059 71.5876L15.1058 70.0677L13.5712 68.7552L12.2735 70.3024L13.8059 71.5876ZM27.2286 74.5567L28.3846 76.1888L28.4068 76.173L28.4286 76.1567L27.2286 74.5567ZM27.3523 68.9897L26.1402 70.5806L26.1579 70.5941L26.1759 70.6072L27.3523 68.9897ZM22.6512 67.1959L23.1113 65.2495L23.1025 65.2474L22.6512 67.1959ZM14.4863 63.9794L15.7459 62.4259L15.7251 62.409L15.7039 62.3928L14.4863 63.9794ZM14.7956 51.3608L16.0166 52.9448L16.0268 52.9369L16.037 52.9289L14.7956 51.3608ZM33.1048 52.6598L34.7359 53.8173L35.8158 52.2956L34.3725 51.1128L33.1048 52.6598ZM30.3832 56.4948L29.0378 57.9747L30.7079 59.493L32.0142 57.6523L30.3832 56.4948ZM26.7337 54.5155L26.0707 56.4024L26.0936 56.4104L26.1167 56.4179L26.7337 54.5155ZM18.5069 54.701L19.6336 56.3535L19.6413 56.3482L19.649 56.3428L18.5069 54.701ZM15.1461 57.3608C15.1461 59.2121 15.8846 60.8519 17.5289 61.8527L19.6087 58.4359C19.356 58.2821 19.1461 58.0662 19.1461 57.3608H15.1461ZM17.38 61.7527C18.0913 62.2785 19.0527 62.7126 20.1229 63.0948C21.2244 63.4882 22.5776 63.8733 24.1639 64.2541L25.0974 60.3645C23.5909 60.0029 22.3873 59.6561 21.4682 59.3279C20.5178 58.9884 19.9946 58.7112 19.7575 58.536L17.38 61.7527ZM24.1629 64.2538C27.2845 65.0046 29.2723 65.9731 30.3926 67.0001L33.0955 64.0515C31.2467 62.3568 28.4922 61.181 25.0983 60.3647L24.1629 64.2538ZM30.4128 67.0184C31.4105 67.9082 32.0327 69.2618 32.0327 71.4021H36.0327C36.0327 68.4289 35.1291 65.865 33.0753 64.0332L30.4128 67.0184ZM32.0327 71.4021C32.0327 73.501 31.2776 75.0899 29.737 76.3476L32.2665 79.4462C34.7671 77.4049 36.0327 74.6639 36.0327 71.4021H32.0327ZM29.7214 76.3605C28.1837 77.6419 26.0761 78.3711 23.2079 78.3711V82.3711C26.7727 82.3711 29.8611 81.4509 32.2821 79.4333L29.7214 76.3605ZM23.2079 78.3711C19.071 78.3711 15.3261 76.9238 11.9099 73.9206L9.26887 76.9248C13.3579 80.5195 18.0253 82.3711 23.2079 82.3711V78.3711ZM12.1218 76.7079L15.3383 72.8729L12.2735 70.3024L9.057 74.1375L12.1218 76.7079ZM12.5059 73.1076C15.8976 76.0083 19.5168 77.6082 23.3316 77.6082V73.6082C20.7135 73.6082 17.9822 72.5278 15.1058 70.0677L12.5059 73.1076ZM23.3316 77.6082C25.2206 77.6082 26.9623 77.1962 28.3846 76.1888L26.0725 72.9247C25.5154 73.3193 24.6592 73.6082 23.3316 73.6082V77.6082ZM28.4286 76.1567C29.88 75.0681 30.7131 73.546 30.7131 71.7113H26.7131C26.7131 72.186 26.5565 72.5608 26.0286 72.9567L28.4286 76.1567ZM30.7131 71.7113C30.7131 69.939 29.971 68.4212 28.5286 67.3722L26.1759 70.6072C26.548 70.8778 26.7131 71.1744 26.7131 71.7113H30.7131ZM28.5644 67.3988C27.3387 66.465 25.4109 65.793 23.1113 65.2495L22.1912 69.1422C24.4277 69.6709 25.6339 70.1948 26.1402 70.5806L28.5644 67.3988ZM23.1025 65.2474C19.2339 64.3516 16.8964 63.3587 15.7459 62.4259L13.2267 65.5329C15.1277 67.0743 18.2336 68.2258 22.2 69.1443L23.1025 65.2474ZM15.7039 62.3928C14.5477 61.5054 13.8265 60.0889 13.8265 57.732H9.82649C9.82649 60.9832 10.8785 63.7317 13.2687 65.566L15.7039 62.3928ZM13.8265 57.732C13.8265 55.567 14.5767 54.0548 16.0166 52.9448L13.5746 49.7768C11.0557 51.7184 9.82649 54.4537 9.82649 57.732H13.8265ZM16.037 52.9289C17.5891 51.7001 19.6573 51.0103 22.4038 51.0103V47.0103C18.9647 47.0103 15.9608 47.8875 13.5542 49.7927L16.037 52.9289ZM22.4038 51.0103C26.1487 51.0103 29.2569 52.0923 31.8372 54.2067L34.3725 51.1128C31.0146 48.3613 26.9889 47.0103 22.4038 47.0103V51.0103ZM31.4738 51.5023L28.7522 55.3373L32.0142 57.6523L34.7359 53.8173L31.4738 51.5023ZM31.7285 55.015C30.5571 53.9501 29.0669 53.1696 27.3507 52.613L26.1167 56.4179C27.452 56.851 28.3948 57.3902 29.0378 57.9747L31.7285 55.015ZM27.3967 52.6285C25.6769 52.0243 23.9479 51.7113 22.2182 51.7113V55.7113C23.4577 55.7113 24.739 55.9345 26.0707 56.4024L27.3967 52.6285ZM22.2182 51.7113C20.4134 51.7113 18.7409 52.1019 17.3648 53.0592L19.649 56.3428C20.1698 55.9806 20.9715 55.7113 22.2182 55.7113V51.7113ZM17.3802 53.0486C15.8939 54.062 15.1461 55.5854 15.1461 57.3608H19.1461C19.1461 56.827 19.3055 56.5772 19.6336 56.3535L17.3802 53.0486ZM58.3683 73.0722L56.8608 71.7579L56.8511 71.769L56.8415 71.7803L58.3683 73.0722ZM60.4714 49.7526V47.7526H58.4714V49.7526H60.4714ZM65.6054 49.7526H67.6054V47.7526H65.6054V49.7526ZM62.0796 76.7216L60.6532 75.3198L62.0796 76.7216ZM43.5229 76.7216L44.9494 75.3198L43.5229 76.7216ZM39.9972 49.7526V47.7526H37.9972V49.7526H39.9972ZM45.0693 49.7526H47.0693V47.7526H45.0693V49.7526ZM47.1724 73.0722L48.6992 71.7803L48.6813 71.7592L48.6629 71.7386L47.1724 73.0722ZM52.8013 77.4845C55.6635 77.4845 58.1074 76.4767 59.8951 74.3641L56.8415 71.7803C55.9075 72.8841 54.6401 73.4845 52.8013 73.4845V77.4845ZM59.8758 74.3864C61.6797 72.3174 62.4714 69.6158 62.4714 66.5155H58.4714C58.4714 68.9409 57.8611 70.6105 56.8608 71.7579L59.8758 74.3864ZM62.4714 66.5155V49.7526H58.4714V66.5155H62.4714ZM60.4714 51.7526H65.6054V47.7526H60.4714V51.7526ZM63.6054 49.7526V66.701H67.6054V49.7526H63.6054ZM63.6054 66.701C63.6054 70.6182 62.5413 73.3985 60.6532 75.3198L63.5061 78.1235C66.319 75.2613 67.6054 71.3612 67.6054 66.701H63.6054ZM60.6532 75.3198C58.7337 77.2729 56.1838 78.3093 52.8013 78.3093V82.3093C57.0889 82.3093 60.7245 80.9539 63.5061 78.1235L60.6532 75.3198ZM52.8013 78.3093C49.4188 78.3093 46.8689 77.2729 44.9494 75.3198L42.0965 78.1235C44.878 80.9539 48.5137 82.3093 52.8013 82.3093V78.3093ZM44.9494 75.3198C43.0613 73.3985 41.9972 70.6182 41.9972 66.701H37.9972C37.9972 71.3612 39.2836 75.2613 42.0965 78.1235L44.9494 75.3198ZM41.9972 66.701V49.7526H37.9972V66.701H41.9972ZM39.9972 51.7526H45.0693V47.7526H39.9972V51.7526ZM43.0693 49.7526V66.5155H47.0693V49.7526H43.0693ZM43.0693 66.5155C43.0693 69.6449 43.8554 72.3643 45.6819 74.4058L48.6629 71.7386C47.6853 70.646 47.0693 68.9943 47.0693 66.5155H43.0693ZM45.6456 74.3641C47.4405 76.4852 49.9103 77.4845 52.8013 77.4845V73.4845C50.9088 73.4845 49.626 72.8756 48.6992 71.7803L45.6456 74.3641ZM95.9794 71.6495L97.4068 70.2486L96.0546 68.8708L94.6299 70.1734L95.9794 71.6495ZM99.2578 74.9897L100.764 76.3055L101.983 74.9106L100.685 73.5888L99.2578 74.9897ZM76.1856 75.9794L74.7812 77.4033L74.791 77.413L74.801 77.4225L76.1856 75.9794ZM76.3093 53.5258L77.6944 54.9686L77.7043 54.959L76.3093 53.5258ZM99.6908 54.2062L101.168 55.5541L102.401 54.2029L101.165 52.8547L99.6908 54.2062ZM96.4743 57.732L95.0807 59.1665L96.561 60.6045L97.9518 59.0799L96.4743 57.732ZM80.0825 56.9897L78.7118 55.5333L78.7046 55.5401L78.6975 55.5469L80.0825 56.9897ZM80.0825 72.2062L81.5107 70.806L80.0825 72.2062ZM91.897 74.4948L91.0738 72.6721L91.0625 72.6772L91.0512 72.6825L91.897 74.4948ZM94.5521 73.0504L97.8304 76.3906L100.685 73.5888L97.4068 70.2486L94.5521 73.0504ZM97.7516 73.6739C94.9837 76.8424 91.6498 78.3711 87.6289 78.3711V82.3711C92.8452 82.3711 97.2638 80.3122 100.764 76.3055L97.7516 73.6739ZM87.6289 78.3711C83.5211 78.3711 80.2171 77.0757 77.5703 74.5362L74.801 77.4225C78.2573 80.7387 82.5821 82.3711 87.6289 82.3711V78.3711ZM77.5901 74.5555C74.9867 71.9878 73.6702 68.7807 73.6702 64.7835H69.6702C69.6702 69.776 71.3639 74.0329 74.7812 77.4033L77.5901 74.5555ZM73.6702 64.7835C73.6702 60.7567 75.0193 57.5367 77.6944 54.9685L74.9243 52.083C71.4139 55.453 69.6702 59.7382 69.6702 64.7835H73.6702ZM77.7043 54.959C80.3887 52.3462 83.7691 51.0103 88.0001 51.0103V47.0103C82.829 47.0103 78.4156 48.6847 74.9144 52.0926L77.7043 54.959ZM88.0001 51.0103C92.047 51.0103 95.4125 52.4988 98.2165 55.5576L101.165 52.8547C97.6185 48.9858 93.1903 47.0103 88.0001 47.0103V51.0103ZM98.2132 52.8583L94.9968 56.384L97.9518 59.0799L101.168 55.5541L98.2132 52.8583ZM97.8679 56.2974C96.3193 54.7931 94.7532 53.6463 93.1653 52.9804L91.6184 56.6691C92.5871 57.0754 93.7427 57.8667 95.0807 59.1665L97.8679 56.2974ZM93.1653 52.9804C91.5891 52.3194 89.8099 52.0206 87.8764 52.0206V56.0206C89.4067 56.0206 90.6378 56.2579 91.6184 56.6691L93.1653 52.9804ZM87.8764 52.0206C84.3137 52.0206 81.2138 53.1785 78.7118 55.5333L81.4533 58.4461C83.1575 56.8421 85.2534 56.0206 87.8764 56.0206V52.0206ZM78.6975 55.5469C76.2141 57.931 74.9898 60.981 74.9898 64.5361H78.9898C78.9898 61.988 79.8273 60.0072 81.4676 58.4325L78.6975 55.5469ZM74.9898 64.5361C74.9898 68.057 76.217 71.1202 78.6544 73.6063L81.5107 70.806C79.8243 69.086 78.9898 67.0357 78.9898 64.5361H74.9898ZM78.6544 73.6063C81.0776 76.078 84.0399 77.3608 87.4434 77.3608V73.3608C85.1561 73.3608 83.2112 72.5406 81.5107 70.806L78.6544 73.6063ZM87.4434 77.3608C89.3916 77.3608 91.1796 77.0367 92.7427 76.3072L91.0512 72.6825C90.1401 73.1077 88.9591 73.3608 87.4434 73.3608V77.3608ZM92.7201 76.3176C94.2505 75.6265 95.7863 74.536 97.329 73.1255L94.6299 70.1734C93.286 71.4022 92.1002 72.2086 91.0738 72.6721L92.7201 76.3176ZM123.153 68.9897L122.587 67.0715L119.884 67.8695L121.53 70.1573L123.153 68.9897ZM131.071 80V82H134.973L132.695 78.8324L131.071 80ZM124.576 80L122.945 81.1569L123.542 82H124.576V80ZM117.339 69.7938L118.97 68.637L118.373 67.7938H117.339V69.7938ZM110.659 69.7938V67.7938H108.659V69.7938H110.659ZM110.659 80V82H112.659V80H110.659ZM105.525 80H103.525V82H105.525V80ZM105.525 49.7526V47.7526H103.525V49.7526H105.525ZM126.617 52.1031L125.376 53.6712L125.394 53.6854L125.412 53.6992L126.617 52.1031ZM122.844 63.9175L121.587 62.3616V62.3616L122.844 63.9175ZM122.844 55.5052L121.706 57.1495L121.727 57.1646L121.75 57.1791L122.844 55.5052ZM110.659 54.3918V52.3918H108.659V54.3918H110.659ZM110.659 65.2165H108.659V67.2165H110.659V65.2165ZM121.53 70.1573L129.447 81.1676L132.695 78.8324L124.777 67.822L121.53 70.1573ZM131.071 78H124.576V82H131.071V78ZM126.208 78.8431L118.97 68.637L115.708 70.9507L122.945 81.1569L126.208 78.8431ZM117.339 67.7938H110.659V71.7938H117.339V67.7938ZM108.659 69.7938V80H112.659V69.7938H108.659ZM110.659 78H105.525V82H110.659V78ZM107.525 80V49.7526H103.525V80H107.525ZM105.525 51.7526H116.782V47.7526H105.525V51.7526ZM116.782 51.7526C121.232 51.7526 123.939 52.534 125.376 53.6712L127.859 50.535C125.336 48.5382 121.487 47.7526 116.782 47.7526V51.7526ZM125.412 53.6992C126.763 54.7192 127.648 56.5032 127.648 59.5876H131.648C131.648 55.7442 130.513 52.5385 127.823 50.507L125.412 53.6992ZM127.648 59.5876C127.648 61.801 127.169 63.4004 126.379 64.5437C125.602 65.6678 124.398 66.5368 122.587 67.0715L123.72 70.9078C126.239 70.1642 128.282 68.827 129.67 66.8171C131.045 64.8264 131.648 62.364 131.648 59.5876H127.648ZM116.968 67.2165C119.866 67.2165 122.451 66.8058 124.101 65.4734L121.587 62.3616C121.093 62.7612 119.76 63.2165 116.968 63.2165V67.2165ZM124.101 65.4734C125.839 64.0696 126.452 61.8849 126.452 59.5258H122.452C122.452 61.2904 121.994 62.0335 121.587 62.3616L124.101 65.4734ZM126.452 59.5258C126.452 57.2576 125.837 55.0722 123.939 53.8312L121.75 57.1791C121.996 57.3401 122.452 57.8352 122.452 59.5258H126.452ZM123.983 53.8608C122.366 52.7415 119.895 52.3918 117.092 52.3918V56.3918C119.814 56.3918 121.178 56.7843 121.706 57.1495L123.983 53.8608ZM117.092 52.3918H110.659V56.3918H117.092V52.3918ZM108.659 54.3918V65.2165H112.659V54.3918H108.659ZM110.659 67.2165H116.968V63.2165H110.659V67.2165ZM158.326 49.7526H160.326V47.7526H158.326V49.7526ZM158.326 54.5155V56.5155H160.326V54.5155H158.326ZM142.182 54.5155V52.5155H140.182V54.5155H142.182ZM142.182 62.5567H140.182V64.5567H142.182V62.5567ZM156.656 62.5567H158.656V60.5567H156.656V62.5567ZM156.656 67.0722V69.0722H158.656V67.0722H156.656ZM142.182 67.0722V65.0722H140.182V67.0722H142.182ZM142.182 75.1753H140.182V77.1753H142.182V75.1753ZM158.821 75.1753H160.821V73.1753H158.821V75.1753ZM158.821 80V82H160.821V80H158.821ZM137.048 80H135.048V82H137.048V80ZM137.048 49.7526V47.7526H135.048V49.7526H137.048ZM156.326 49.7526V54.5155H160.326V49.7526H156.326ZM158.326 52.5155H142.182V56.5155H158.326V52.5155ZM140.182 54.5155V62.5567H144.182V54.5155H140.182ZM142.182 64.5567H156.656V60.5567H142.182V64.5567ZM154.656 62.5567V67.0722H158.656V62.5567H154.656ZM156.656 65.0722H142.182V69.0722H156.656V65.0722ZM140.182 67.0722V75.1753H144.182V67.0722H140.182ZM142.182 77.1753H158.821V73.1753H142.182V77.1753ZM156.821 75.1753V80H160.821V75.1753H156.821ZM158.821 78H137.048V82H158.821V78ZM139.048 80V49.7526H135.048V80H139.048ZM137.048 51.7526H158.326V47.7526H137.048V51.7526Z" fill="white"/>
<path d="M201.789 49.7526V54.5155H185.645V62.5567H200.119V67.0722H185.645V75.1753H202.284V80H180.511V49.7526H201.789ZM231.513 49.7526H236.585V80H231.08L213.946 57.9175V80H208.812V49.7526H213.946L231.513 72.3299V49.7526ZM258.816 80H253.126L240.94 49.7526H246.693L255.971 72.3299L265.311 49.7526H271.002L258.816 80ZM275.316 49.7526H280.45V80H275.316V49.7526ZM280.017 47.2165H275.563L280.14 40.9691L285.274 43.0722L280.017 47.2165ZM293.06 73.134L290.029 80H284.586L297.947 49.7526H303.39L316.689 80H311.246L308.215 73.134H293.06ZM306.174 68.3711L300.668 55.9381L295.163 68.3711H306.174Z" fill="#EFF3EE"/>
<path d="M201.789 49.7526H203.789V47.7526H201.789V49.7526ZM201.789 54.5155V56.5155H203.789V54.5155H201.789ZM185.645 54.5155V52.5155H183.645V54.5155H185.645ZM185.645 62.5567H183.645V64.5567H185.645V62.5567ZM200.119 62.5567H202.119V60.5567H200.119V62.5567ZM200.119 67.0722V69.0722H202.119V67.0722H200.119ZM185.645 67.0722V65.0722H183.645V67.0722H185.645ZM185.645 75.1753H183.645V77.1753H185.645V75.1753ZM202.284 75.1753H204.284V73.1753H202.284V75.1753ZM202.284 80V82H204.284V80H202.284ZM180.511 80H178.511V82H180.511V80ZM180.511 49.7526V47.7526H178.511V49.7526H180.511ZM199.789 49.7526V54.5155H203.789V49.7526H199.789ZM201.789 52.5155H185.645V56.5155H201.789V52.5155ZM183.645 54.5155V62.5567H187.645V54.5155H183.645ZM185.645 64.5567H200.119V60.5567H185.645V64.5567ZM198.119 62.5567V67.0722H202.119V62.5567H198.119ZM200.119 65.0722H185.645V69.0722H200.119V65.0722ZM183.645 67.0722V75.1753H187.645V67.0722H183.645ZM185.645 77.1753H202.284V73.1753H185.645V77.1753ZM200.284 75.1753V80H204.284V75.1753H200.284ZM202.284 78H180.511V82H202.284V78ZM182.511 80V49.7526H178.511V80H182.511ZM180.511 51.7526H201.789V47.7526H180.511V51.7526ZM231.513 49.7526V47.7526H229.513V49.7526H231.513ZM236.585 49.7526H238.585V47.7526H236.585V49.7526ZM236.585 80V82H238.585V80H236.585ZM231.08 80L229.5 81.226L230.1 82H231.08V80ZM213.946 57.9175L215.526 56.6915L211.946 52.0774V57.9175H213.946ZM213.946 80V82H215.946V80H213.946ZM208.812 80H206.812V82H208.812V80ZM208.812 49.7526V47.7526H206.812V49.7526H208.812ZM213.946 49.7526L215.524 48.5244L214.924 47.7526H213.946V49.7526ZM231.513 72.3299L229.934 73.5581L233.513 78.1572V72.3299H231.513ZM231.513 51.7526H236.585V47.7526H231.513V51.7526ZM234.585 49.7526V80H238.585V49.7526H234.585ZM236.585 78H231.08V82H236.585V78ZM232.66 78.774L215.526 56.6915L212.366 59.1436L229.5 81.226L232.66 78.774ZM211.946 57.9175V80H215.946V57.9175H211.946ZM213.946 78H208.812V82H213.946V78ZM210.812 80V49.7526H206.812V80H210.812ZM208.812 51.7526H213.946V47.7526H208.812V51.7526ZM212.367 50.9808L229.934 73.5581L233.091 71.1017L215.524 48.5244L212.367 50.9808ZM233.513 72.3299V49.7526H229.513V72.3299H233.513ZM258.816 80V82H260.167L260.672 80.7474L258.816 80ZM253.126 80L251.271 80.7474L251.775 82H253.126V80ZM240.94 49.7526V47.7526H237.978L239.085 50.4999L240.94 49.7526ZM246.693 49.7526L248.543 48.9924L248.033 47.7526H246.693V49.7526ZM255.971 72.3299L254.121 73.0901L255.965 77.5766L257.819 73.0945L255.971 72.3299ZM265.311 49.7526V47.7526H263.974L263.463 48.988L265.311 49.7526ZM271.002 49.7526L272.857 50.4999L273.964 47.7526H271.002V49.7526ZM258.816 78H253.126V82H258.816V78ZM254.981 79.2526L242.795 49.0052L239.085 50.4999L251.271 80.7474L254.981 79.2526ZM240.94 51.7526H246.693V47.7526H240.94V51.7526ZM244.843 50.5128L254.121 73.0901L257.821 71.5697L248.543 48.9924L244.843 50.5128ZM257.819 73.0945L267.159 50.5171L263.463 48.988L254.123 71.5653L257.819 73.0945ZM265.311 51.7526H271.002V47.7526H265.311V51.7526ZM269.147 49.0052L256.961 79.2526L260.672 80.7474L272.857 50.4999L269.147 49.0052ZM275.316 49.7526V47.7526H273.316V49.7526H275.316ZM280.45 49.7526H282.45V47.7526H280.45V49.7526ZM280.45 80V82H282.45V80H280.45ZM275.316 80H273.316V82H275.316V80ZM280.017 47.2165V49.2165H280.71L281.255 48.7872L280.017 47.2165ZM275.563 47.2165L273.95 46.0345L271.618 49.2165H275.563V47.2165ZM280.14 40.9691L280.898 39.1183L279.451 38.5255L278.527 39.787L280.14 40.9691ZM285.274 43.0722L286.512 44.6429L289.205 42.5208L286.032 41.2214L285.274 43.0722ZM275.316 51.7526H280.45V47.7526H275.316V51.7526ZM278.45 49.7526V80H282.45V49.7526H278.45ZM280.45 78H275.316V82H280.45V78ZM277.316 80V49.7526H273.316V80H277.316ZM280.017 45.2165H275.563V49.2165H280.017V45.2165ZM277.176 48.3985L281.754 42.1511L278.527 39.787L273.95 46.0345L277.176 48.3985ZM279.382 42.8198L284.516 44.9229L286.032 41.2214L280.898 39.1183L279.382 42.8198ZM284.036 41.5015L278.779 45.6458L281.255 48.7872L286.512 44.6429L284.036 41.5015ZM293.06 73.134V71.134H291.757L291.231 72.3263L293.06 73.134ZM290.029 80V82H291.333L291.859 80.8077L290.029 80ZM284.586 80L282.756 79.1919L281.516 82H284.586V80ZM297.947 49.7526V47.7526H296.644L296.117 48.9445L297.947 49.7526ZM303.39 49.7526L305.221 48.9476L304.695 47.7526H303.39V49.7526ZM316.689 80V82H319.753L318.52 79.195L316.689 80ZM311.246 80L309.416 80.8077L309.942 82H311.246V80ZM308.215 73.134L310.044 72.3263L309.518 71.134H308.215V73.134ZM306.174 68.3711V70.3711H309.246L308.002 67.5614L306.174 68.3711ZM300.668 55.9381L302.497 55.1284L300.668 50.9983L298.84 55.1284L300.668 55.9381ZM295.163 68.3711L293.335 67.5614L292.09 70.3711H295.163V68.3711ZM291.231 72.3263L288.2 79.1923L291.859 80.8077L294.89 73.9417L291.231 72.3263ZM290.029 78H284.586V82H290.029V78ZM286.415 80.8081L299.776 50.5607L296.117 48.9445L282.756 79.1919L286.415 80.8081ZM297.947 51.7526H303.39V47.7526H297.947V51.7526ZM301.559 50.5576L314.858 80.805L318.52 79.195L305.221 48.9476L301.559 50.5576ZM316.689 78H311.246V82H316.689V78ZM313.075 79.1923L310.044 72.3263L306.385 73.9417L309.416 80.8077L313.075 79.1923ZM308.215 71.134H293.06V75.134H308.215V71.134ZM308.002 67.5614L302.497 55.1284L298.84 56.7479L304.345 69.1809L308.002 67.5614ZM298.84 55.1284L293.335 67.5614L296.992 69.1809L302.497 56.7479L298.84 55.1284ZM295.163 70.3711H306.174V66.3711H295.163V70.3711Z" fill="#0A5004" fill-opacity="0.8"/>
</svg>
